PathFileType	4	(X/Y/Z)	C:\Users\willi\Desktop\Data_PaperCallum_v2\17_Akif\Gait05\marker_experimental_temp.trc
DataRate	CameraRate	NumFrames	NumMarkers	Units	OrigDataRate	OrigDataStartFrame	OrigNumFrames
100.000000	100.000000	7	27	mm	100.000000	53	213
Frame#	Time	C7			T10			Clav			Sternum			Right_Back			PCL_CRAN			PCL_RECHTS			PCL_LINKS			RCL_UL_CRAN			RCL_UL_POST			RCL_UL_ANT			RCL_LL_CRAN			RCL_LL_POST			RCL_LL_ANT			Right_Heel			Right_Toe			Right_M5			LCL_UL_CRAN			LCL_UL_POST			LCL_UL_ANT			LCL_LL_CRAN			LCL_LL_POST			LCL_LL_ANT			Left_Heel			Left_Toe			Left_M5			*26			
		X1	Y1	Z1	X2	Y2	Z2	X3	Y3	Z3	X4	Y4	Z4	X5	Y5	Z5	X6	Y6	Z6	X7	Y7	Z7	X8	Y8	Z8	X9	Y9	Z9	X10	Y10	Z10	X11	Y11	Z11	X12	Y12	Z12	X13	Y13	Z13	X14	Y14	Z14	X15	Y15	Z15	X16	Y16	Z16	X17	Y17	Z17	X18	Y18	Z18	X19	Y19	Z19	X20	Y20	Z20	X21	Y21	Z21	X22	Y22	Z22	X23	Y23	Z23	X24	Y24	Z24	X25	Y25	Z25	X26	Y26	Z26	X27	Y27	Z27	

54	0.53	1079.286376953125	1411.461181640625	186.9176025390624	1111.407836914063	1192.58642578125	192.058364868164	937.1438598632811	1340.935424804688	195.6631622314453	873.5010375976561	1179.737670898438	210.4570922851562	1111.122802734375	1347.7421875	74.26654815673821	1097.1943359375	1027.628540039063	187.0606079101562	1106.931884765625	968.2807006835939	163.4740753173828	1109.184936523438	968.4395751953126	214.1346893310546	925.622314453125	741.8129272460938	9.969518661498967	922.3655395507813	676.6845703125	12.97407627105707	877.7825927734375	697.7882080078125	6.644262313842719	910.1994018554688	409.9621276855469	22.02122688293451	958.3633422851563	365.6383972167969	24.05355453491205	911.6873779296875	344.6808166503907	25.10909652709955	1114.72998046875	118.8519821166993	124.2332763671874	937.5794067382813	55.76859283447271	82.00873565673822	988.8892822265625	57.90998840332038	37.06624984741205	995.2470092773438	753.1525878906251	359.2855834960937	1009.043151855469	690.2660522460939	347.8122253417968	960.4639282226563	697.7428588867189	356.3831481933593	1047.806518554688	375.0620117187501	316.2412719726562	1076.322509765625	316.4664916992188	316.7473144531249	1026.036499023438	313.8782348632813	311.5167846679687	1135.720581054688	34.78423690795906	226.2322998046874	928.2935180664063	32.26459121704107	233.0647583007812	975.9930419921875	12.35933494567877	295.6144409179687	nan	nan	nan	
55	0.54	1065.948608398438	1410.966186523438	186.9982299804687	1098.51708984375	1192.163452148438	192.0501251220703	923.9549560546874	1340.13427734375	195.3660583496093	860.7832641601561	1178.778686523438	210.731704711914	1098.292724609375	1347.084716796875	74.83726501464837	1084.654907226563	1027.117553710938	186.0245513916015	1094.320434570313	967.8203735351564	162.2482604980468	1096.986938476563	967.8879394531251	212.8787231445312	909.396484375	742.6469116210938	10.10631942749018	904.8971557617188	677.6139526367188	13.08376216888422	860.5226440429688	699.5399169921875	7.61847400665278	887.6790771484375	408.6749572753907	23.59168052673335	932.665283203125	361.2973632812501	25.40759277343744	885.0447387695313	343.3901062011719	26.35438537597651	1072.330688476563	104.1365585327149	125.4287872314452	891.6265869140625	53.86270904541021	80.92421722412104	943.3429565429688	52.89270019531256	36.41964721679682	986.3377685546875	752.4868164062501	358.4840393066406	1000.893005371094	689.8061523437501	346.7485351562499	952.250244140625	696.6372680664064	355.3661499023437	1044.588989257813	375.2210083007813	315.3466796874999	1073.759155273438	316.9707336425782	316.0192871093749	1023.500610351563	313.7422790527344	310.7555541992187	1135.5263671875	35.25612640380866	225.5120697021484	928.1267700195313	32.17469406127935	233.0912017822265	976.0477905273438	12.45264339447028	295.5745849609374	nan	nan	nan	
56	0.55	1052.590454101563	1410.182373046875	187.004653930664	1085.584838867188	1191.450561523438	191.9114837646484	910.7291259765624	1339.052612304688	195.0306396484374	848.0155029296874	1177.53466796875	210.9816131591796	1085.415893554688	1346.130004882813	75.34177398681634	1072.057250976563	1026.303466796875	184.8073577880859	1081.629516601563	967.0418701171876	160.8893737792968	1084.731079101563	967.0535278320314	211.4851684570312	893.5993041992188	742.8950805664063	10.29527187347407	888.0466918945313	677.9796142578125	13.28454685211176	843.8107299804688	700.616455078125	8.650401115417429	865.6366577148438	406.8791198730469	25.19901657104487	907.1864013671875	356.5319213867188	26.63982772827143	858.762451171875	341.8546142578126	27.65119171142573	1028.669799804688	90.10601806640631	126.4487152099609	845.4026489257813	52.58935928344732	80.07606506347651	897.2551879882813	48.39684677124029	35.90777969360346	977.401611328125	751.7295532226564	357.7172851562499	992.6865234375	689.2394409179689	345.7302551269531	943.9863891601563	695.4520263671876	354.4075317382812	1041.056030273438	375.3340454101563	314.4504699707031	1070.908813476563	317.4304199218751	315.2499694824218	1020.672912597656	313.5260314941407	309.9500732421874	1135.325073242188	35.74329757690437	224.7158966064453	927.9602661132813	32.09316253662115	233.1213226318359	976.1211547851563	12.5554456710816	295.5177612304687	nan	nan	nan	
57	0.5600000000000001	1039.205200195313	1409.121337890625	186.9349975585937	1072.596313476563	1190.458251953125	191.6431884765624	897.4562377929686	1337.70703125	194.6529693603515	835.1831054687499	1176.024169921875	211.1953124999999	1072.484375	1344.890747070313	75.77519226074212	1059.382690429688	1025.197021484375	183.4236907958984	1068.840576171875	965.9558105468751	159.412368774414	1072.393676757813	965.9470825195314	209.9695434570312	878.2540283203125	742.5380859375	10.52221298217768	871.8843383789063	677.7490234375	13.56803035736079	827.7119750976563	700.9660034179688	9.696115493774363	844.0579223632813	404.6400756835938	26.82911682128901	881.9785766601563	351.4844055175782	27.80026245117182	832.8870849609375	340.1636657714844	28.97633743286128	983.9303588867188	77.07318115234381	127.2888565063476	799.0344848632813	52.14672088623052	79.42207336425777	850.7537231445313	44.66518783569341	35.49544525146479	968.4281005859375	750.8945922851564	356.9968566894531	984.41064453125	688.5830688476564	344.7794494628906	935.6614990234375	694.2019042968751	353.5344848632812	1037.213012695313	375.4020690917969	313.5665283203124	1067.78125	317.8552246093751	314.4555969238281	1017.569519042969	313.2431945800782	309.1209411621093	1135.115966796875	36.26037597656257	223.8646087646484	927.7982177734375	32.0161972045899	233.1546630859374	976.2158813476563	12.66389465332037	295.4454956054687	nan	nan	nan	
58	0.5700000000000001	1025.786376953125	1407.799072265625	186.787124633789	1059.537109375	1189.201171875	191.2481079101562	884.1268310546874	1336.118774414063	194.2288208007812	822.2717285156249	1174.270751953125	211.3613739013671	1059.490844726563	1343.384155273438	76.13233947753899	1046.61279296875	1023.813598632813	181.8921966552734	1055.936279296875	964.5788574218751	157.8339385986328	1059.951049804688	964.5834350585939	208.3493652343749	863.3654174804688	741.5745239257813	10.76750755310053	856.456787109375	676.9049072265625	13.91109943389887	812.2716064453125	700.5534057617188	10.70369815826411	822.9274291992188	402.0375061035157	28.46914291381831	857.0875854492188	346.3001098632813	28.93631553649897	807.4640502929688	338.4069213867188	30.30833244323725	938.371826171875	65.30789947509771	127.9478378295898	752.7047119140625	52.71854782104496	78.92216491699214	804.0281982421875	41.92782211303716	35.15285873413081	959.4039306640625	749.9956665039064	356.3310546874999	976.0516357421875	687.8557128906251	343.9146728515624	927.2639770507813	692.9025268554688	352.7694091796874	1033.070068359375	375.4291381835938	312.7088623046874	1064.390625	318.2588195800782	313.6549377441406	1014.214050292969	312.9138488769532	308.2947998046874	1134.897583007813	36.8281555175782	222.9866485595703	927.647216796875	31.94082641601568	233.1912384033203	976.33447265625	12.77393722534186	295.3608398437499	nan	nan	nan	
59	0.58	1012.328308105469	1406.235595703125	186.5587463378906	1046.393310546875	1187.698120117188	190.7311401367187	870.7325439453124	1334.31298828125	193.7537078857421	809.2677001953124	1172.302490234375	211.4687499999999	1046.428100585938	1341.630859375	76.40787506103509	1033.729125976563	1022.173767089844	180.2349548339843	1042.899658203125	962.9330444335939	156.1722564697265	1047.379760742188	962.9815063476564	206.6436920166015	848.91552734375	740.022705078125	11.00732421874995	841.7775268554688	675.448974609375	14.27623367309565	797.5057983398438	699.3659057617188	11.61677646636958	802.22705078125	399.1598815917969	30.10700225830073	832.5494995117188	341.1199340820313	30.08474159240718	782.534912109375	336.6672363281251	31.6292285919189	892.3328247070313	55.01896286010748	128.4280090332031	706.658935546875	54.45496368408207	78.54599761962886	757.336181640625	40.3816413879395	34.86178588867183	950.3123779296875	749.0460205078126	355.7249145507812	967.59521484375	687.0765380859376	343.1500244140624	918.78125	691.5694580078125	352.1286315917968	1028.6396484375	375.4223022460938	311.8914184570312	1060.752685546875	318.6575012207032	312.8684997558593	1010.632385253906	312.5616455078126	307.5010986328124	1134.667602539063	37.4733963012696	222.1163482666015	927.51513671875	31.86506462097174	233.2313385009765	976.478515625	12.88143920898444	295.2679138183593	nan	nan	nan	
60	0.59	998.8256835937499	1404.454833984375	186.2474975585937	1033.151611328125	1185.971313476563	190.0990753173828	857.2658081054686	1332.31884765625	193.2231903076171	796.1578979492186	1170.152099609375	211.5071258544921	1033.289916992188	1339.65478515625	76.59648895263666	1020.71337890625	1020.302551269531	178.4768981933593	1029.715454101563	961.0458374023439	154.4464569091796	1034.6572265625	961.1640014648439	204.8726654052734	834.8616943359375	737.9214477539063	11.21558856964106	827.8189086914063	673.4049682617188	14.61451244354243	783.3936767578125	697.4188842773438	12.37926006317134	781.9360961914063	396.0989074707032	31.73083686828609	808.3895263671875	336.0735168457032	31.26616668701167	758.1360473632813	335.0145263671876	32.92599868774409	846.2284545898438	46.33813476562505	128.7366027832031	661.2058715820313	57.44998550415043	78.28119659423824	711.0030517578125	40.16654968261723	34.62137985229488	941.1328125	748.0579833984376	355.1800842285156	959.0261840820313	686.2637939453126	342.4942932128906	910.1989135742188	690.2166137695313	351.6214904785156	1023.935607910156	375.3908691406251	311.1277770996093	1056.881225585938	319.0685119628907	312.1181945800781	1006.847595214844	312.2104492187501	306.7684631347656	1134.423095703125	38.22803115844734	221.2913208007812	927.4099731445313	31.7881584167481	233.2753448486328	976.6478881835938	12.98262596130377	295.1717529296874	nan	nan	nan	
